<svg width="400" height="300" viewBox="0 0 400 300" xmlns="http://www.w3.org/2000/svg">
  <defs>
    <linearGradient id="gbgendorphi" x1="0%" y1="0%" x2="100%" y2="100%">
      <stop offset="0%" style="stop-color:#8b0000"/>
      <stop offset="100%" style="stop-color:#050508"/>
    </linearGradient>
    <linearGradient id="gshendorphi" x1="0%" y1="0%" x2="100%" y2="60%">
      <stop offset="0%" style="stop-color:#f0c040;stop-opacity:0.95"/>
      <stop offset="100%" style="stop-color:#f0c040;stop-opacity:0.35"/>
    </linearGradient>
  </defs>
  <rect width="400" height="300" fill="url(#gbgendorphi)"/>
  <rect x="14" y="14" width="46" height="30" rx="5" fill="#2e7d52"/>
  <text x="37" y="35" text-anchor="middle" font-family="Arial Black,Arial,sans-serif" font-size="14" font-weight="900" fill="white">B</text>
  <g transform="translate(20,55)">
    <ellipse cx="180" cy="168" rx="162" ry="14" fill="#f0c040" opacity="0.12"/>
    <path d="M 18,148 Q 42,68 108,56 Q 168,44 228,60 Q 288,72 318,100 Q 336,120 328,148 Z"
          fill="url(#gshendorphi)"/>
    <path d="M 14,148 Q 42,162 180,165 Q 318,162 334,150 L 328,148 Q 288,148 180,148 Q 42,148 18,148 Z"
          fill="#f0c040" opacity="0.55"/>
    <path d="M 18,165 Q 180,175 334,165 L 334,150 Q 318,162 180,165 Q 42,162 14,148 Z"
          fill="#f0c040" opacity="0.25"/>
    <path d="M 108,56 Q 150,38 192,42 Q 234,44 252,60"
          stroke="#f0c040" stroke-width="2.5" fill="none" opacity="0.7"/>
    <line x1="118" y1="76" x2="214" y2="70" stroke="#f0c040" stroke-width="1.5" opacity="0.45"/>
    <line x1="122" y1="90" x2="218" y2="84" stroke="#f0c040" stroke-width="1.5" opacity="0.45"/>
    <line x1="124" y1="104" x2="220" y2="98" stroke="#f0c040" stroke-width="1.5" opacity="0.45"/>
    <text x="268" y="134" font-family="Arial Black,Arial,sans-serif" font-size="26" font-weight="900"
          fill="#f0c040" opacity="0.45">S</text>
  </g>
  <line x1="0" y1="236" x2="400" y2="236" stroke="white" stroke-width="0.5" opacity="0.08"/>
  <text x="200" y="258" text-anchor="middle" font-family="Arial,sans-serif" font-size="11"
        fill="#f0c040" opacity="0.65" letter-spacing="2.5">SAUCONY</text>
  <text x="200" y="280" text-anchor="middle" font-family="Arial Black,Arial,sans-serif" font-size="14"
        font-weight="900" fill="white">Endorphin Speed 5</text>
</svg>